<?xml version="1.0" standalone="no"?><!DOCTYPE svg PUBLIC "-//W3C//DTD SVG 1.1//EN" "http://www.w3.org/Graphics/SVG/1.1/DTD/svg11.dtd"><svg t="1559094735920" class="icon" style="" viewBox="0 0 1024 1024" version="1.1" xmlns="http://www.w3.org/2000/svg" p-id="831" xmlns:xlink="http://www.w3.org/1999/xlink" width="200" height="200"><defs><style type="text/css"></style></defs><path d="M976 956 48 956c-26.4 0-48-21.6-48-47.2L0 116c0-26.4 21.6-47.2 48-47.2l928 0c26.4 0 48 21.6 48 47.2l0 792.8C1024 935.2 1002.4 956 976 956zM96 116c-26.4 0-48 21.6-48 47.2 0 26.4 21.6 47.2 48 47.2s48-21.6 48-47.2C144 137.6 122.4 116 96 116zM240 116c-26.4 0-48 21.6-48 47.2 0 26.4 21.6 47.2 48 47.2 26.4 0 48-21.6 48-47.2C288 137.6 266.4 116 240 116zM384 116c-26.4 0-48 21.6-48 47.2 0 26.4 21.6 47.2 48 47.2 26.4 0 48-21.6 48-47.2C432 137.6 410.4 116 384 116zM976 260 48 260l0 648.8 928 0L976 260zM356 384c4.8-4.8 12-4.8 16.8 0 4.8 4.8 4.8 12 0 16.8L204.8 568l168 167.2c4.8 4.8 4.8 12 0 16.8s-12 4.8-16.8 0l-176-176C177.6 574.4 176 571.2 176 568c0-3.2 0.8-6.4 3.2-8.8L356 384zM568.8 434.4c3.2-5.6 10.4-8 16-4.8 5.6 3.2 8 9.6 5.6 16l-136 256.8c-3.2 5.6-10.4 8-16 4.8-5.6-3.2-8-9.6-5.6-16L568.8 434.4zM651.2 384c4.8-4.8 12-4.8 16.8 0l176 176c2.4 2.4 3.2 5.6 3.2 8.8 0 3.2-0.8 6.4-3.2 8.8l-176 176c-4.8 4.8-12 4.8-16.8 0-4.8-4.8-4.8-12 0-16.8l168-168-168-168C646.4 396 646.4 388.8 651.2 384z" p-id="832" fill="#707070"></path></svg>