<?xml version="1.0" standalone="no"?><!DOCTYPE svg PUBLIC "-//W3C//DTD SVG 1.1//EN" "http://www.w3.org/Graphics/SVG/1.1/DTD/svg11.dtd"><svg t="1559095959389" class="icon" style="" viewBox="0 0 1024 1024" version="1.1" xmlns="http://www.w3.org/2000/svg" p-id="4959" xmlns:xlink="http://www.w3.org/1999/xlink" width="200" height="200"><defs><style type="text/css"></style></defs><path d="M313.412425 816.827854l25.224519 13.738659a359.142191 359.142191 0 0 0 70.698625 29.09865l27.511451 8.106661 7.133862 70.826626 136.055388 0.042666 7.082662-70.826625 27.562651-8.140795a361.053656 361.053656 0 0 0 70.741292-29.09865l25.224518-13.738658 54.954635 44.97064 96.213277-96.213277-45.013307-55.005835 13.781325-25.258652c11.89546-21.759987 21.708787-45.567973 29.141317-70.655959l8.106662-27.56265 70.826625-7.082663V443.972605l-70.826625-7.125329-8.106662-27.519984c-7.423996-25.087985-17.237323-48.895971-29.141317-70.707159l-13.738658-25.215985 45.013307-54.954635-96.213277-96.255944-55.005835 44.970641-25.215985-13.738659a361.053656 361.053656 0 0 0-70.741292-29.09865l-27.562651-8.149328-7.039996-70.826625-136.055387-0.042667-7.167996 70.911959-27.528517 8.106661c-25.087985 7.381329-48.810638 17.15199-70.698626 29.09865l-25.215985 13.738659-54.997301-45.004774-96.255944 96.255944 45.02184 54.954635-13.789858 25.215985a367.359786 367.359786 0 0 0-29.04745 70.741292l-8.157862 27.511451-70.613292 7.082662-0.256 135.901787 70.877826 7.295996 8.149328 27.562651a368.486185 368.486185 0 0 0 29.04745 70.741292l13.789858 25.173318-44.799973 54.783969 95.871944 96.255943 55.159434-44.799973z m266.623845 207.155079h-136.021254c-44.117308 0-80.639953-33.023981-84.991951-76.885288l-1.450666-14.677325a443.903741 443.903741 0 0 1-33.74078-13.875192l-11.22986 9.181861a85.290617 85.290617 0 0 1-114.687933-5.71733l-95.871944-95.91461a85.265017 85.265017 0 0 1-5.71733-114.773267l9.130661-11.144526a443.903741 443.903741 0 0 1-13.866658-33.749314l-14.455459-1.450666a85.367417 85.367417 0 0 1-77.141288-85.162617V444.185938a85.333284 85.333284 0 0 1 77.090088-85.162617l14.506659-1.450666a443.903741 443.903741 0 0 1 13.866658-33.749313l-9.343994-11.349327a85.128484 85.128484 0 0 1 5.71733-114.380733l96.255943-96.255944a85.137017 85.137017 0 0 1 114.389267-5.71733l11.349327 9.343994a444.202408 444.202408 0 0 1 33.757847-13.909325l1.450666-14.677325a85.085817 85.085817 0 0 1 84.99195-76.885288h136.021254a85.162617 85.162617 0 0 1 84.94075 76.834089l1.450666 14.719991a437.102678 437.102678 0 0 1 33.757847 13.909325l11.30666-9.301328a85.162617 85.162617 0 0 1 114.466067 5.71733l96.17061 96.213277a85.077284 85.077284 0 0 1 5.71733 114.389267l-9.258661 11.349327a462.122397 462.122397 0 0 1 13.875192 33.757847l14.677325 1.450666a85.102884 85.102884 0 0 1 76.842622 84.949283v136.055388c0 44.031974-33.023981 80.55462-76.842622 84.957817l-14.677325 1.450666a462.122397 462.122397 0 0 1-13.875192 33.74078l9.215995 11.30666a85.14555 85.14555 0 0 1-5.66613 114.483133l-96.170611 96.170611a85.14555 85.14555 0 0 1-114.431933 5.71733l-11.349327-9.301328a436.821079 436.821079 0 0 1-33.757847 13.858125l-1.450666 14.677325a85.128484 85.128484 0 0 1-84.94075 76.885288z" fill="#707070" p-id="4960"></path><path d="M512.008576 298.66709c-117.631931 0-213.333209 95.701278-213.333209 213.333209s95.701278 213.333209 213.333209 213.333209 213.333209-95.701278 213.333209-213.333209-95.701278-213.333209-213.333209-213.333209m0 85.333283c70.698625 0 127.999925 57.3013 127.999925 127.999926s-57.3013 127.999925-127.999925 127.999925-127.999925-57.3013-127.999925-127.999925 57.3013-127.999925 127.999925-127.999926" fill="#707070" p-id="4961"></path></svg>