<?xml version="1.0" standalone="no"?><!DOCTYPE svg PUBLIC "-//W3C//DTD SVG 1.1//EN" "http://www.w3.org/Graphics/SVG/1.1/DTD/svg11.dtd"><svg t="1556424981881" class="icon" style="" viewBox="0 0 1024 1024" version="1.1" xmlns="http://www.w3.org/2000/svg" p-id="17300" xmlns:xlink="http://www.w3.org/1999/xlink" width="200" height="200"><defs><style type="text/css"></style></defs><path d="M767.220752 152.052045L767.220752 152.052045c-0.973164-6.124488-4.275373-11.55722-9.29776-15.296381l-96.927563-72.163553c-3.099594-2.308579-7.036253-3.125177-10.79588-2.238994-3.761674 0.884137-6.92062 3.368724-8.668427 6.816243-2.88163 5.688559-1.261737 12.58155 3.853771 16.391319l79.997985 59.557444c-21.068851 2.388397-41.742706 6.859221-61.673641 13.348006-34.373879 11.189853-65.519226 27.936259-92.571349 49.77259-27.104311 21.87931-48.740074 47.771003-64.305585 76.953649-14.475689 27.139104-14.72333 27.697829-26.521027 59.942207-1.134847 3.099594-0.687662 6.51846 1.226944 9.376555 2.425236 3.621481 7.05365 6.082532 11.793604 6.272867 0.198521 0.008186 0.394996 0.01228 0.591471 0.01228 6.016017-0.001023 11.001565-3.689019 13.410428-9.969049 11.060917-28.836769 11.060917-28.836769 24.545022-54.116525 13.951757-26.157753 33.376155-49.390897 57.733912-69.052702 24.410969-19.703761 52.532447-34.819017 83.58365-44.927235 18.452257-6.006807 37.622876-10.103102 57.164954-12.223393l-58.480926 82.620719c-3.582595 5.063319-3.092431 12.011568 1.163499 16.522302 2.700505 2.859118 6.496971 4.339842 10.422374 4.066619 3.923356-0.277316 7.477298-2.276856 9.750061-5.486968l69.898976-98.754165C766.734682 164.362418 768.19187 158.175509 767.220752 152.052045z" fill="#8a8a8a" p-id="17301"></path><path d="M568.505945 341.849762l251.993245 0c7.043417 0 13.085016-5.510504 13.213953-12.551874 0.130983-7.1744-5.644557-13.030781-12.789281-13.030781l-252.417917 0c-7.064906 0-12.791327 5.726421-12.791327 12.791327S561.441039 341.849762 568.505945 341.849762z" fill="#8a8a8a" p-id="17302"></path><path d="M868.571045 369.160781l-600.046289 0c-49.446156 0-89.723487 40.011272-90.154299 89.357144l-49.02967 405.124877-0.092098 0.765433 0 0.771573c0 25.295106 10.475586 48.186466 27.311019 64.574714l-1.106194 0c-35.663244 0-64.574714-28.91147-64.574714-64.574714l0-520.788154c0-35.664268 28.91147-64.574714 64.574714-64.574714l83.314521 0 0-0.102331 75.146491 0c11.06501 0 17.160845 7.913227 22.195511 18.470677l0.025583 0c6.732331 24.559349 26.51591 43.664475 52.78725 43.664475l42.461067 0c7.064906 0 12.791327-5.726421 12.791327-12.791327s-5.726421-12.791327-12.791327-12.791327l-42.461067 0c-19.790742-0.344854-26.109658-23.696702-27.143197-27.585265-5.26798-19.831674-18.96391-34.55091-39.07597-34.55091l-105.077174 0 0 0.102331-62.174038 0c-49.792033 0-90.157369 40.364313-90.157369 90.157369l0 520.788154c0 49.793056 40.365336 90.157369 90.157369 90.157369l63.953567 0 19.361977 0 580.685335 0c49.446156 0 89.722464-40.011272 90.154299-89.357144l49.02967-405.124877 0.092098-0.765433 0-0.771573C958.728414 409.525094 918.364101 369.160781 868.571045 369.160781zM884.120183 863.642802l-0.092098 0.765433 0 0.771573c0 35.606962-28.967752 64.574714-64.574714 64.574714l-580.685335 0-19.361977 0c-35.361369 0-64.175625-28.569686-64.571644-63.838957l49.022507-405.061432 0.092098-0.765433 0-0.771573c0-35.606962 28.968775-64.574714 64.574714-64.574714l600.046289 0c35.361369 0 64.174602 28.569686 64.570621 63.838957L884.120183 863.642802z" fill="#8a8a8a" p-id="17303"></path></svg>