<?xml version="1.0" standalone="no"?><!DOCTYPE svg PUBLIC "-//W3C//DTD SVG 1.1//EN" "http://www.w3.org/Graphics/SVG/1.1/DTD/svg11.dtd"><svg t="1556424072889" class="icon" style="" viewBox="0 0 1024 1024" version="1.1" xmlns="http://www.w3.org/2000/svg" p-id="10398" xmlns:xlink="http://www.w3.org/1999/xlink" width="200" height="200"><defs><style type="text/css"></style></defs><path d="M736.9 261.3h-456c-16.6 0-32.2 7-44.1 19.7-13.8 14.7-20.9 35.3-19.5 56.5l33 502c2.4 58.2 44.6 103.8 96.1 103.8h324.8c51.6 0 93.8-45.6 96.3-103.4l33-502.4c1.3-21.2-5.8-41.8-19.5-56.5-11.9-12.7-27.6-19.7-44.1-19.7z m25.4 73.7l-33 502.9c-1.6 37.7-27 67.2-58 67.2H346.4c-31 0-56.5-29.6-58-67.7l-33-502.4c-0.7-10.7 2.6-20.9 9.2-27.9 3.2-3.5 8.7-7.6 16.2-7.6h456.1c7.5 0 13 4.1 16.2 7.6 6.5 7 9.9 17.2 9.2 27.9z" fill="#8a8a8a" p-id="10399"></path><path d="M420.7 398c-10.6 0-19.1 8.6-19.1 19.1v343.2c0 10.5 8.5 19 19.1 19.1 10.6 0 19.1-8.6 19.1-19.1V417.1c0-10.6-8.6-19.1-19.1-19.1zM597 398c-10.6 0-19.1 8.6-19.1 19.1v343.2c0 10.5 8.6 19 19.1 19.1 10.6 0 19.1-8.6 19.1-19.1V417.1c0-10.6-8.6-19.1-19.1-19.1zM845.9 178.1s0-0.1-0.1-0.1c-19.4-31-31.8-30.3-97-30.3H568c0-17.7-15.2-32-33.9-32h-50.7c-18.7 0-33.9 14.3-33.9 32H268.7c-63.1 0-77.5-0.7-97 30.3 0 0 0 0.1-0.1 0.1-3.3 5.3 0.6 12.2 6.9 12.2H839c6.2 0 10.2-6.9 6.9-12.2z" fill="#8a8a8a" p-id="10400"></path></svg>